<svg width="154" height="140" viewBox="0 0 154 140" fill="none" xmlns="http://www.w3.org/2000/svg">
<path d="M33 100H11V130H33V100ZM88 60H66V130H88V60ZM143 10V130H121V10H143ZM121 0C118.083 0 115.285 1.05357 113.222 2.92893C111.159 4.8043 110 7.34784 110 10V130C110 132.652 111.159 135.196 113.222 137.071C115.285 138.946 118.083 140 121 140H143C145.917 140 148.715 138.946 150.778 137.071C152.841 135.196 154 132.652 154 130V10C154 7.34784 152.841 4.8043 150.778 2.92893C148.715 1.05357 145.917 0 143 0H121ZM55 60C55 57.3478 56.1589 54.8043 58.2218 52.9289C60.2847 51.0536 63.0826 50 66 50H88C90.9174 50 93.7153 51.0536 95.7782 52.9289C97.8411 54.8043 99 57.3478 99 60V130C99 132.652 97.8411 135.196 95.7782 137.071C93.7153 138.946 90.9174 140 88 140H66C63.0826 140 60.2847 138.946 58.2218 137.071C56.1589 135.196 55 132.652 55 130V60ZM0 100C0 97.3478 1.15892 94.8043 3.22182 92.9289C5.28472 91.0536 8.08262 90 11 90H33C35.9174 90 38.7153 91.0536 40.7782 92.9289C42.8411 94.8043 44 97.3478 44 100V130C44 132.652 42.8411 135.196 40.7782 137.071C38.7153 138.946 35.9174 140 33 140H11C8.08262 140 5.28472 138.946 3.22182 137.071C1.15892 135.196 0 132.652 0 130V100Z" fill="white"/>
</svg>
